<svg viewBox="0 0 46.72 74.73" xmlns="http://www.w3.org/2000/svg"><path d="m0 13.62v27.12l10.92 6.26 12.44 27.73v-35.13l-10.92-6.18v-12.45l10.92-6.54 10.97 6.28-.05.03v12.68l-10.92 6.18v35.13l12.44-27.73h-.25l11.17-6.26v-27.12l-23.52-13.62z" fill="#00aa89"/><path d="m41.61 16.54.05.03v20.48l-18.3 10.25v27.43l12.44-27.73 10.92-6.26v-27.12z" fill="#009474"/><path d="m0 13.62 5.06 2.99v-.04l18.3-10.24 18.27 10.23 5.09-2.94-23.52-13.62z" fill="#4fdcb8"/><path d="m42.33 37.73v-21.46l-19.41-11.92-19.4 11.54v21.84l19.95 10.93z" fill="#1ab491"/><g fill="#fff"><path d="m17.7 20.93-4.24 1.42-1.62-4.76 9.81-3.35 1.61 4.76-4.05 1.38c.39 1.06.76 2.09 1.17 3.11.05.15.29.24.46.32a7.21 7.21 0 0 0 .7.23c-.41 1.53-.8 3-1.23 4.51a1.34 1.34 0 0 1 -.46.55c-.85.74-1.74 1.45-2.56 2.21a1.37 1.37 0 0 0 -.41.86v5.07h-5.75v-1.52-4a2.25 2.25 0 0 1 2.37-2.4 5.15 5.15 0 0 1 1 0c1.7.39 2.62-.84 3.64-1.79.27-.25.26-.79.42-1.19a3.93 3.93 0 0 0 -.16-3.41 17.35 17.35 0 0 1 -.7-2z"/><path d="m23.71 26.28c1.26.09 1.34-.86 1.63-1.62s.47-1.26.72-1.93l-3.95-1.33c0-.66.34-.89.87-1s1.12-.37 1.74-.57l-1-3.11 9.75 3.11-1.61 4.81-4.29-1.39c-.43 1.19-.89 2.35-1.27 3.52-.08.26.1.59.13.9a4.74 4.74 0 0 0 2.32 3.61 1.76 1.76 0 0 0 .82.29c.75.05 1.51 0 2.27 0a2.25 2.25 0 0 1 2.31 2.34v3.34h-5.74v-2.72a1.1 1.1 0 0 0 -.48-1c-.89-.72-1.75-1.48-2.61-2.23a1.34 1.34 0 0 1 -.42-.59c-.39-1.4-.77-2.84-1.19-4.43zm-9.12-2.78a2.29 2.29 0 0 1 0 4.57 2.29 2.29 0 1 1 0-4.57z"/><path d="m30.7 25.82a2.28 2.28 0 0 1 2.3 2.29 2.32 2.32 0 0 1 -2.33 2.28 2.26 2.26 0 0 1 -2.25-2.34 2.24 2.24 0 0 1 2.28-2.23z"/></g></svg>