<svg xmlns="http://www.w3.org/2000/svg" viewBox="0 0 46.72 74.73"><path fill="#00aa89" d="M0 13.62v27.12L10.92 47l12.44 27.73V39.6l-10.92-6.18V20.97l10.92-6.54 10.97 6.28-.05.03v12.68L23.36 39.6v35.13L35.8 47h-.25l11.17-6.26V13.62L23.2 0 0 13.62z"/><path fill="#009474" d="M41.61 16.54l.05.03v20.48L23.36 47.3v27.43L35.8 47l10.92-6.26V13.62l-5.11 2.92z"/><path fill="#4fdcb8" d="M0 13.62l5.06 2.99v-.04l18.3-10.24 18.27 10.23 5.09-2.94L23.2 0 0 13.62z"/><path fill="#1ab491" d="M42.33 37.73V16.27L22.92 4.35 3.52 15.89v21.84l19.95 10.93 18.86-10.93z"/><path d="M10.39 21.68a1.88 1.88 0 0 1 .16-.39.92.92 0 0 1 .83-.44h4a2.4 2.4 0 0 1-1.63-1A2.29 2.29 0 0 1 13.3 18a2.4 2.4 0 1 1 2.7 2.85h13.74A2.43 2.43 0 0 1 28 19.71a2.32 2.32 0 0 1-.33-1.59 2.4 2.4 0 1 1 2.66 2.73h4a1 1 0 0 1 1 1v3.68a1 1 0 0 1-.87 1h-1v10.61h-2.95v-2.87H15.18v2.87h-2.87V26.6h-1a1 1 0 0 1-1-.79zm4.79 10.67H30.5v-5.74H15.18zm1.43-10.54H13.8c-.05 0-.07 0-.09.07-.62 1.23-1.23 2.45-1.84 3.68a.2.2 0 0 0 0 .08h2.8c.06 0 .08 0 .11-.07.61-1.23 1.22-2.45 1.84-3.68zm17.25 0h-2.78c-.07 0-.1 0-.13.07l-1.83 3.68a.2.2 0 0 0 0 .08h2.8a.09.09 0 0 0 .1-.07c.62-1.23 1.23-2.45 1.84-3.68a.3.3 0 0 0 0-.08zm-16.28 3.83h2.81a.09.09 0 0 0 .09-.06c.62-1.23 1.23-2.47 1.85-3.7v-.07h-2.75a.13.13 0 0 0-.13.07l-1.52 3.06c-.12.23-.23.46-.35.7zm5.75 0h2.77a.13.13 0 0 0 .14-.08l1.83-3.67a.2.2 0 0 0 0-.08H25.3a.1.1 0 0 0-.1.07l-1.83 3.68a.15.15 0 0 0-.04.08zm-6.81-7.18a.86.86 0 0 0-.85-.87.87.87 0 1 0 .85.87zm12.64 0a.89.89 0 0 0 .87.87.87.87 0 1 0-.87-.87z" fill="#fff"/></svg>