<svg viewBox="0 0 46.72 74.73" xmlns="http://www.w3.org/2000/svg"><path d="m0 13.62v27.12l10.92 6.26 12.44 27.73v-35.13l-10.92-6.18v-12.45l10.92-6.54 10.97 6.28-.05.03v12.68l-10.92 6.18v35.13l12.44-27.73h-.25l11.17-6.26v-27.12l-23.52-13.62z" fill="#00aa89"/><path d="m41.61 16.54.05.03v20.48l-18.3 10.25v27.43l12.44-27.73 10.92-6.26v-27.12z" fill="#009474"/><path d="m0 13.62 5.06 2.99v-.04l18.3-10.24 18.27 10.23 5.09-2.94-23.52-13.62z" fill="#4fdcb8"/><path d="m42.33 37.73v-21.46l-19.41-11.92-19.4 11.54v21.84l19.95 10.93z" fill="#1ab491"/><path d="m19.77 41.58a.71.71 0 0 1 -.23-.62v-4.6a.66.66 0 0 0 -.14-.36c-2-2.38-4-4.75-6-7.11a1.41 1.41 0 0 1 .11-2.1.37.37 0 0 0 .09-.28v-3c0-.22.07-.28.27-.27a5.21 5.21 0 0 0 .79 0c.2 0 .27.05.27.27v2.87a.34.34 0 0 0 .19.36 1.3 1.3 0 0 1 .32.3c1.75 2.05 3.49 4.09 5.22 6.14a.51.51 0 0 0 .44.21h4.15a.51.51 0 0 0 .44-.21l5.17-6.09a1.75 1.75 0 0 1 .37-.35.32.32 0 0 0 .17-.33v-2.92c0-.2.06-.26.25-.25a5.47 5.47 0 0 0 .81 0c.22 0 .26.08.26.28v3a.45.45 0 0 0 .12.29 1.39 1.39 0 0 1 .16 2q-2.17 2.58-4.37 5.15c-.56.67-1.14 1.34-1.69 2a.8.8 0 0 0 -.16.42v4.6a.67.67 0 0 1 -.25.61z" fill="#fff"/><path d="m23.15 27a2.75 2.75 0 1 1 -2.8 2.73 2.77 2.77 0 0 1 2.8-2.73zm10.44-13.38h-20.85a.66.66 0 0 0 -.64.3v8.49a.65.65 0 0 0 .55.26h21c.41 0 .54-.14.54-.54v-7.92c-.02-.44-.19-.59-.6-.59zm-7.59 7.18a3.32 3.32 0 0 1 -2.66 1.37 3.44 3.44 0 0 1 -3.59-3.32 3.53 3.53 0 0 1 .35-1.78c.1-.18.22-.36.34-.56a1.09 1.09 0 0 1 -.34-.06 1.45 1.45 0 0 1 -.26-.24.19.19 0 0 1 0-.31l.62-.64c.11-.13.22-.12.31 0s.38.29.27.57l1.18-.55c.1 0 .22 0 .33-.08a.24.24 0 0 0 .1-.12s-.06-.08-.1-.09-.16-.1-.16-.22a4 4 0 0 0 0-.49c0-.13 0-.19.18-.19h1.37c.05 0 .14.09.15.15a2.62 2.62 0 0 1 0 .56c0 .06-.08.12-.13.17a.5.5 0 0 1 -.13.12c.05 0 .1.11.16.12a3 3 0 0 1 1.25.56 3.62 3.62 0 0 1 .76 5z" fill="#fff"/><path d="m23.2 15.79a2.86 2.86 0 1 0 2.87 2.87 2.86 2.86 0 0 0 -2.87-2.87zm1.29 1.63-.82.83a.33.33 0 0 0 -.09.24.63.63 0 0 1 -.27.68l-.86-.76a.53.53 0 0 1 .67-.3l1.1-1c.1-.1.2-.15.32 0s.04.23-.05.31z" fill="none"/><g fill="#fff"><path d="m23.5 18.63a.84.84 0 0 0 -.29-.17.17.17 0 0 0 -.19.21c0 .07.13.18.19.17s.16-.11.29-.21z"/><path d="m23.5 18.63c-.13.1-.21.21-.29.21s-.18-.1-.19-.17a.17.17 0 0 1 .19-.21.84.84 0 0 1 .29.17z"/><path d="m23.2 15.79a2.86 2.86 0 1 0 2.87 2.87 2.86 2.86 0 0 0 -2.87-2.87zm.42 3.05-.38-.38 1.29-1.29.38.39z"/></g></svg>