<svg xmlns="http://www.w3.org/2000/svg" viewBox="0 0 46.72 74.73"><path fill="#00aa89" d="M0 13.62v27.12L10.92 47l12.44 27.73V39.6l-10.92-6.18V20.97l10.92-6.54 10.97 6.28-.05.03v12.68L23.36 39.6v35.13L35.8 47h-.25l11.17-6.26V13.62L23.2 0 0 13.62z"/><path fill="#009474" d="M41.61 16.54l.05.03v20.48L23.36 47.3v27.43L35.8 47l10.92-6.26V13.62l-5.11 2.92z"/><path fill="#4fdcb8" d="M0 13.62l5.06 2.99v-.04l18.3-10.24 18.27 10.23 5.09-2.94L23.2 0 0 13.62z"/><path fill="#1ab491" d="M42.33 37.73V16.27L22.92 4.35 3.52 15.89v21.84l19.95 10.93 18.86-10.93z"/><path d="M33.49 22.79c-.08.27-.26.35-.54.35H13c-.28 0-.47-.07-.54-.35v-7.92c.07-.27.26-.35.53-.35H33c.28 0 .46.08.54.35zM19.81 41.19a.48.48 0 0 1-.29-.51v-4.46a.73.73 0 0 0-.14-.38Q16.5 32.4 13.6 29a1.3 1.3 0 0 1 .13-1.91.4.4 0 0 0 .12-.27V23.7h1.25v3a.28.28 0 0 0 .15.29 1.22 1.22 0 0 1 .32.28l5 5.85a.55.55 0 0 0 .5.23h3.88a.53.53 0 0 0 .47-.21c1.64-1.95 3.29-3.89 4.94-5.84.07-.08.13-.18.22-.21.28-.12.28-.34.27-.58V23.7h1.25v3.08a.34.34 0 0 0 .14.32 1.31 1.31 0 0 1 .11 1.9l-3.07 3.6c-.91 1.08-1.83 2.15-2.74 3.24a.65.65 0 0 0-.13.38v4.46a.52.52 0 0 1-.25.51z" fill="#fff"/><path d="M33.49 14.87c-.08-.27-.26-.35-.54-.35H13c-.27 0-.46.08-.53.35v-.38h21.02zM23 32.49a2.63 2.63 0 1 1 2.67-2.61A2.65 2.65 0 0 1 23 32.49z" fill="#fff"/></svg>