<svg xmlns="http://www.w3.org/2000/svg" viewBox="0 0 46.72 74.73"><path fill="#00aa89" d="M0 13.62v27.12L10.92 47l12.44 27.73V39.6l-10.92-6.18V20.97l10.92-6.54 10.97 6.28-.05.03v12.68L23.36 39.6v35.13L35.8 47h-.25l11.17-6.26V13.62L23.2 0 0 13.62z"/><path fill="#009474" d="M41.61 16.54l.05.03v20.48L23.36 47.3v27.43L35.8 47l10.92-6.26V13.62l-5.11 2.92z"/><path fill="#4fdcb8" d="M0 13.62l5.06 2.99v-.04l18.3-10.24 18.27 10.23 5.09-2.94L23.2 0 0 13.62z"/><path fill="#1ab491" d="M42.33 37.73V16.27L22.92 4.35 3.52 15.89v21.84l19.95 10.93 18.86-10.93z"/><path d="M21.26 40.94a2.49 2.49 0 0 1-.67-.46 1.19 1.19 0 0 1-.17-.68V20.57a.91.91 0 0 0-.23-.63q-2.84-3.32-5.65-6.64a.73.73 0 0 1-.22-.64.7.7 0 0 1 .52-.56.69.69 0 0 1 .77.24l1.93 2.27 3.06 3.61a.49.49 0 0 0 .43.2h4.29a.55.55 0 0 0 .47-.22c1.64-1.94 3.29-3.87 4.93-5.8a.77.77 0 0 1 .72-.33.73.73 0 0 1 .43 1.23c-.66.79-1.34 1.58-2 2.37L26.2 20a.8.8 0 0 0-.2.55v19.17c0 .77-.17 1-.88 1.25h-.21c-.7-.28-.84-.48-.84-1.25V30a2.81 2.81 0 0 0 0-.29.85.85 0 0 0-.7-.74.82.82 0 0 0-.89.53 1.63 1.63 0 0 0 0 .49v9.7c0 .78-.15 1-.86 1.26z" fill="#fff"/><path d="M9.41 19.41a6.38 6.38 0 0 1-.6.46c-.09.06-.22 0-.34 0a.92.92 0 0 1 .11-.33 2 2 0 0 1 .35-.3c.12-.11.25-.18.21-.4a.33.33 0 0 1 .45-.33.39.39 0 0 0 .39-.11l3.19-2.54c.06 0 .11-.11.17-.12a.4.4 0 0 1 .27 0v.25c0 .08-.1.09-.16.14l-3.06 2.45-.33.26.43.5L13 22.35a.46.46 0 0 0 .4.18h2.9a1.23 1.23 0 0 1 1.34 1.33v4.68c0 .23-.05.42-.3.49a.3.3 0 0 1-.43-.26 10.92 10.92 0 0 1-.11-1.15v-3a.64.64 0 0 0 0-.24c0-.06-.12-.14-.19-.14s-.14.08-.17.15a.57.57 0 0 0 0 .23v2.51a15 15 0 0 0 .36 3.21c.39 2.33.79 4.66 1.18 7a.54.54 0 0 1-.43.66.6.6 0 0 1-.68-.45v-.12c-.41-1.85-.81-3.69-1.22-5.54-.09-.4-.17-.8-.26-1.2a.65.65 0 0 0-.63-.55.61.61 0 0 0-.63.54q-.74 3.33-1.46 6.66c0 .07 0 .14-.05.21a.57.57 0 0 1-.64.45.53.53 0 0 1-.47-.64c0-.37.12-.74.18-1.11q.69-4 1.37-7.93a1.1 1.1 0 0 0 0-.26v-4.24a.65.65 0 0 0-.11-.38l-3.43-3.93zM36.26 18.92l-2-1.59-1.49-1.2c-.11-.09-.22-.19-.09-.34s.23 0 .34 0l3.28 2.63a.34.34 0 0 0 .35.09c.26-.08.44.1.47.37a.59.59 0 0 0 .14.3c.15.14.34.25.48.4s0 .19.07.29-.22 0-.29 0a7.17 7.17 0 0 1-.66-.5l-1.45 1.7-1.93 2.27a.72.72 0 0 0-.15.42v4.32a12.91 12.91 0 0 0 .29 1.92c.42 2.46.85 4.91 1.28 7.37a.56.56 0 0 1-.45.66.59.59 0 0 1-.68-.47c-.12-.51-.22-1-.33-1.53-.38-1.75-.77-3.5-1.15-5.26a.65.65 0 0 0-.64-.6c-.33 0-.56.2-.65.6l-1.47 6.68v.1a.59.59 0 0 1-.68.48.56.56 0 0 1-.44-.71c.08-.53.18-1.05.27-1.57.42-2.46.85-4.91 1.27-7.36a1.42 1.42 0 0 0 0-.29v-3.49-.21c0-.05-.12-.15-.19-.15s-.14.08-.17.15a.6.6 0 0 0 0 .23v3.09c0 .35-.07.69-.11 1a.28.28 0 0 1-.3.29.39.39 0 0 1-.41-.27 1 1 0 0 1 0-.31v-4.51a1.22 1.22 0 0 1 1.36-1.36h2.85a.56.56 0 0 0 .38-.15c1-1.12 1.93-2.26 2.89-3.39zM25.24 15.49a2 2 0 0 1-2.06 2 2 2 0 0 1-2-2 2 2 0 0 1 2-2 2 2 0 0 1 2.06 2z" fill="#fff"/><path d="M14.68 22.16A1.18 1.18 0 1 1 15.9 21a1.2 1.2 0 0 1-1.22 1.16zM31.57 22.16A1.18 1.18 0 1 1 32.82 21a1.2 1.2 0 0 1-1.25 1.16z" fill="#fff"/></svg>