<svg viewBox="0 0 46.72 74.73" xmlns="http://www.w3.org/2000/svg"><path d="m0 13.62v27.12l10.92 6.26 12.44 27.73v-35.13l-10.92-6.18v-12.45l10.92-6.54 10.97 6.28-.05.03v12.68l-10.92 6.18v35.13l12.44-27.73h-.25l11.17-6.26v-27.12l-23.52-13.62z" fill="#00aa89"/><path d="m41.61 16.54.05.03v20.48l-18.3 10.25v27.43l12.44-27.73 10.92-6.26v-27.12z" fill="#009474"/><path d="m0 13.62 5.06 2.99v-.04l18.3-10.24 18.27 10.23 5.09-2.94-23.52-13.62z" fill="#4fdcb8"/><path d="m42.33 37.73v-21.46l-19.41-11.92-19.4 11.54v21.84l19.95 10.93z" fill="#1ab491"/><g fill="#fff"><path d="m13.33 23.07a5.68 5.68 0 0 1 1-2 1.67 1.67 0 0 0 1.4 1l-.48.75.21-.06a11.94 11.94 0 0 0 2.6-1.24l2.58-1.71a23.68 23.68 0 0 1 4.36-2.21c1.17-.46 2.36-.87 3.55-1.29a.87.87 0 0 1 1.17.52.88.88 0 0 1 -.62 1.17 41.54 41.54 0 0 0 -5.69 2.25c-.3.14-.6.3-.91.46.12.21.22.4.33.58a18 18 0 0 1 2.05 5.32c.05.25 0 .56.17.72s.46.14.7.21a9.44 9.44 0 0 1 4.76 3.35 13.92 13.92 0 0 1 1.89 3.28 2.13 2.13 0 0 1 .11.33v.41a1.35 1.35 0 0 1 -1.21 1.09 1.38 1.38 0 0 1 -1.41-.88 20.22 20.22 0 0 0 -1-2 7.21 7.21 0 0 0 -2.89-2.64 5.35 5.35 0 0 0 -3-.61c-.09 0-.16 0-.19.13a9.33 9.33 0 0 1 -1.63 3.18 23.26 23.26 0 0 1 -3.9 4 2.48 2.48 0 0 1 -.94.55h-.54a1.34 1.34 0 0 1 -1-1.31 1.45 1.45 0 0 1 .62-1.15 22 22 0 0 0 3-2.9 8.65 8.65 0 0 0 1.64-2.61 3.11 3.11 0 0 0 .21-1 6.88 6.88 0 0 0 -.38-2.06 7.34 7.34 0 0 0 -2-2.93h-.2c-.5.21-1 .44-1.5.63a4.06 4.06 0 0 1 -1.58.32 1.32 1.32 0 0 1 -1.18-.72 2.2 2.2 0 0 1 -.13-.36z"/><path d="m18.59 15.31.39.1a2.42 2.42 0 1 1 -1.13-.07h.14z"/><path d="m15.86 21.8a1.42 1.42 0 0 1 -.07-2.8.2.2 0 0 1 .22.11 2.56 2.56 0 0 0 1.13 1 .24.24 0 0 1 .15.23 1.42 1.42 0 0 1 -1.43 1.46z"/></g></svg>