<svg width="22" height="27" viewBox="0 0 22 27" fill="none" xmlns="http://www.w3.org/2000/svg">
<path d="M21.03 8.30027C20.95 8.57027 20.77 8.65027 20.49 8.65027H0.54C0.26 8.65027 0.07 8.58027 0 8.30027V0.380273C0.07 0.110273 0.26 0.0302734 0.53 0.0302734H20.54C20.82 0.0302734 21 0.110273 21.08 0.380273L21.03 8.30027ZM7.35 26.7003C7.25207 26.6593 7.17049 26.587 7.11801 26.4947C7.06554 26.4025 7.04514 26.2954 7.06 26.1903V21.7303C7.05011 21.5929 7.00157 21.4612 6.92 21.3503C5 19.0569 3.07333 16.7769 1.14 14.5103C1.01607 14.3798 0.920579 14.225 0.859574 14.0557C0.79857 13.8864 0.773381 13.7063 0.785601 13.5267C0.797821 13.3472 0.847185 13.1721 0.930567 13.0127C1.01395 12.8532 1.12953 12.7128 1.27 12.6003C1.34299 12.5289 1.38592 12.4323 1.39 12.3303V9.21027H2.64V12.2103C2.63153 12.2682 2.64145 12.3274 2.66836 12.3794C2.69526 12.4314 2.73781 12.4737 2.79 12.5003C2.91223 12.5742 3.02055 12.6689 3.11 12.7803L8.11 18.6303C8.1658 18.7091 8.24139 18.7719 8.32916 18.8123C8.41694 18.8527 8.5138 18.8692 8.61 18.8603H12.49C12.5797 18.8681 12.67 18.8529 12.7522 18.8162C12.8344 18.7794 12.906 18.7223 12.96 18.6503C14.6 16.7003 16.25 14.7603 17.9 12.8103C17.97 12.7303 18.03 12.6303 18.12 12.6003C18.4 12.4803 18.4 12.2603 18.39 12.0203V9.21027H19.64V12.2903C19.6322 12.3513 19.6411 12.4133 19.6658 12.4696C19.6904 12.526 19.7299 12.5746 19.78 12.6103C19.9163 12.725 20.0277 12.8663 20.1075 13.0256C20.1872 13.1849 20.2337 13.3588 20.244 13.5366C20.2543 13.7144 20.2282 13.8925 20.1673 14.0599C20.1065 14.2273 20.0121 14.3806 19.89 14.5103L16.82 18.1103C15.91 19.1903 14.99 20.2603 14.08 21.3503C13.9976 21.46 13.9521 21.5931 13.95 21.7303V26.1903C13.9623 26.2904 13.9452 26.3919 13.9008 26.4824C13.8564 26.573 13.7866 26.6487 13.7 26.7003H7.35Z" fill="white"/>
<path d="M21.0298 0.38C20.9498 0.11 20.7698 0.0300007 20.4898 0.0300007H0.539765C0.269765 0.0300007 0.0797656 0.11 0.00976562 0.38V0H21.0298V0.38ZM10.5398 18C10.0205 17.9921 9.51526 17.8306 9.08764 17.536C8.66002 17.2414 8.32919 16.8267 8.13686 16.3444C7.94454 15.862 7.89932 15.3335 8.0069 14.8254C8.11448 14.3174 8.37005 13.8526 8.7414 13.4896C9.11275 13.1266 9.58325 12.8817 10.0936 12.7856C10.6039 12.6896 11.1313 12.7469 11.6092 12.9501C12.087 13.1533 12.494 13.4935 12.7789 13.9277C13.0637 14.3619 13.2137 14.8707 13.2098 15.39C13.1992 16.0893 12.9126 16.7562 12.4125 17.2451C11.9123 17.734 11.2392 18.0054 10.5398 18Z" fill="white"/>
</svg>
