<svg width="23" height="28" viewBox="0 0 23 28" fill="none" xmlns="http://www.w3.org/2000/svg">
<path d="M7.66964 27.9651C7.58388 27.8881 7.51813 27.7915 7.47806 27.6835C7.43798 27.5755 7.4248 27.4593 7.43965 27.3451V22.7451C7.42992 22.6138 7.38117 22.4884 7.29964 22.3851C5.29964 20.0051 3.29964 17.6351 1.29964 15.2751C1.15874 15.1352 1.04895 14.9672 0.977448 14.7821C0.90595 14.5969 0.874359 14.3987 0.884743 14.2005C0.895127 14.0022 0.94725 13.8084 1.0377 13.6317C1.12816 13.455 1.2549 13.2994 1.40964 13.1751C1.44299 13.137 1.46818 13.0926 1.48366 13.0444C1.49914 12.9962 1.50458 12.9454 1.49964 12.8951V9.89507C1.49964 9.67507 1.56964 9.61507 1.76964 9.62507C2.0326 9.64506 2.29669 9.64506 2.55964 9.62507C2.75964 9.62507 2.82964 9.67507 2.82964 9.89507V12.7651C2.81823 12.8375 2.83057 12.9118 2.86482 12.9766C2.89906 13.0415 2.95337 13.0936 3.01964 13.1251C3.14253 13.2062 3.25074 13.3077 3.33964 13.4251C5.08964 15.4751 6.82964 17.5151 8.55964 19.5651C8.60962 19.634 8.67607 19.6894 8.75293 19.7261C8.82978 19.7627 8.9146 19.7796 8.99964 19.7751H13.1496C13.2347 19.7796 13.3195 19.7627 13.3964 19.7261C13.4732 19.6894 13.5397 19.634 13.5896 19.5651L18.7596 13.4751C18.8653 13.341 18.9899 13.2231 19.1296 13.1251C19.1888 13.0946 19.2369 13.0464 19.2674 12.9872C19.2979 12.9281 19.3091 12.8609 19.2996 12.7951V9.87507C19.2996 9.67507 19.3596 9.61507 19.5496 9.62507C19.8193 9.64509 20.09 9.64509 20.3596 9.62507C20.5796 9.62507 20.6196 9.70507 20.6196 9.90507V12.9051C20.6235 13.013 20.6661 13.1159 20.7396 13.1951C20.8848 13.3136 21.0045 13.4603 21.0916 13.6263C21.1786 13.7922 21.2312 13.9741 21.2461 14.1609C21.2611 14.3478 21.2381 14.5357 21.1786 14.7134C21.119 14.8911 21.0241 15.055 20.8996 15.1951C19.453 16.9151 17.9963 18.6317 16.5296 20.3451C15.9696 21.0151 15.3896 21.6851 14.8396 22.3451C14.7473 22.4669 14.6917 22.6127 14.6796 22.7651V27.3651C14.6941 27.4797 14.6787 27.5961 14.6349 27.7029C14.5911 27.8098 14.5204 27.9036 14.4296 27.9751L7.66964 27.9651Z" fill="white"/>
<path d="M11.05 13.3853C11.5925 13.3952 12.12 13.5653 12.566 13.8743C13.012 14.1833 13.3567 14.6174 13.5565 15.1218C13.7564 15.6262 13.8026 16.1785 13.6893 16.7092C13.576 17.2398 13.3082 17.725 12.9197 18.1038C12.5312 18.4826 12.0393 18.738 11.506 18.8379C10.9727 18.9377 10.4217 18.8776 9.92249 18.665C9.42328 18.4524 8.9981 18.0969 8.70049 17.6432C8.40288 17.1895 8.24614 16.6579 8.25 16.1153C8.26054 15.3824 8.56115 14.6835 9.08598 14.1718C9.6108 13.6601 10.317 13.3773 11.05 13.3853ZM21.49 0.00529333H0.639999C0.515855 -0.0105244 0.389772 0.00928021 0.276455 0.0623974C0.163138 0.115515 0.0672591 0.199755 0 0.305294V8.79529C0.0635141 8.88021 0.146838 8.94829 0.242704 8.99361C0.338571 9.03893 0.44407 9.06011 0.549999 9.05529H21.55C21.96 9.05529 22.09 8.91529 22.09 8.51529V0.595293C22.07 0.155293 21.9 0.00529333 21.49 0.00529333ZM13.9 7.18529C13.5948 7.6059 13.1951 7.94899 12.7331 8.18694C12.2711 8.42489 11.7597 8.55106 11.24 8.55529C10.7857 8.57538 10.332 8.50521 9.90498 8.34882C9.47799 8.19244 9.08625 7.95296 8.7524 7.64422C8.41855 7.33548 8.14923 6.96361 7.96001 6.55013C7.77079 6.13665 7.66542 5.68976 7.65 5.23529C7.60961 4.6216 7.73026 4.00801 8 3.45529C8.1 3.27529 8.22 3.09529 8.34 2.89529C8.2242 2.89348 8.10943 2.87323 8 2.83529C7.90386 2.76621 7.81654 2.68561 7.74 2.59529C7.71523 2.57774 7.69504 2.5545 7.6811 2.52753C7.66716 2.50057 7.65989 2.47065 7.65989 2.44029C7.65989 2.40994 7.66716 2.38002 7.6811 2.35305C7.69504 2.32609 7.71523 2.30285 7.74 2.28529L8.36 1.64529C8.47 1.51529 8.58 1.52529 8.67 1.64529C8.76 1.76529 9.05 1.93529 8.94 2.21529L10.12 1.66529C10.22 1.66529 10.34 1.66529 10.45 1.58529C10.4958 1.55756 10.531 1.51533 10.55 1.46529C10.55 1.46529 10.49 1.38529 10.45 1.37529C10.41 1.36529 10.29 1.27529 10.29 1.15529C10.3 0.992114 10.3 0.828473 10.29 0.665293C10.29 0.535293 10.29 0.475294 10.47 0.475294H11.84C11.89 0.475294 11.98 0.565293 11.99 0.625293C12.01 0.811424 12.01 0.999163 11.99 1.18529C11.99 1.24529 11.91 1.30529 11.86 1.35529C11.8241 1.4027 11.7801 1.44334 11.73 1.47529C11.78 1.47529 11.83 1.58529 11.89 1.59529C12.3443 1.68307 12.7721 1.87473 13.14 2.15529C13.8942 2.72462 14.3959 3.56631 14.5379 4.50057C14.6799 5.43482 14.451 6.38757 13.9 7.15529V7.18529Z" fill="white"/>
<path d="M11.3993 5.01515C11.3151 4.93952 11.2164 4.88169 11.1093 4.84515C11.0816 4.84098 11.0533 4.84374 11.0269 4.85317C11.0005 4.86261 10.9768 4.87842 10.958 4.89921C10.9392 4.91999 10.9258 4.94511 10.9191 4.97232C10.9123 4.99952 10.9124 5.02798 10.9193 5.05515C10.9193 5.12515 11.0493 5.23515 11.1093 5.22515C11.1693 5.21515 11.2693 5.11515 11.3993 5.01515Z" fill="white"/>
<path d="M11.3993 5.01515C11.2693 5.11515 11.1893 5.22515 11.1093 5.22515C11.0293 5.22515 10.9293 5.12515 10.9193 5.05515C10.9124 5.02798 10.9123 4.99952 10.9191 4.97232C10.9258 4.94511 10.9392 4.91999 10.958 4.89921C10.9768 4.87842 11.0005 4.86261 11.0269 4.85317C11.0533 4.84374 11.0816 4.84098 11.1093 4.84515C11.2164 4.88169 11.3151 4.93952 11.3993 5.01515Z" fill="white"/>
<path d="M11.1 2.17531C10.5352 2.17729 9.98362 2.34645 9.51483 2.66147C9.04604 2.97649 8.68102 3.42326 8.46579 3.94545C8.25057 4.46763 8.19477 5.04186 8.30544 5.59571C8.41612 6.14956 8.6883 6.65824 9.08768 7.05762C9.48705 7.45699 9.99574 7.72918 10.5496 7.83985C11.1034 7.95052 11.6777 7.89473 12.1998 7.6795C12.722 7.46428 13.1688 7.09926 13.4838 6.63047C13.7988 6.16168 13.968 5.61011 13.97 5.04531C13.9713 4.66805 13.898 4.29425 13.7542 3.94545C13.6104 3.59665 13.3991 3.27974 13.1323 3.01297C12.8656 2.7462 12.5486 2.53485 12.1998 2.39108C11.851 2.24732 11.4772 2.17399 11.1 2.17531ZM11.52 5.22531L11.14 4.84531L12.43 3.55531L12.81 3.94531L11.52 5.22531Z" fill="white"/>
</svg>
