<svg width="5306" height="6373" viewBox="0 0 5306 6373" fill="none" xmlns="http://www.w3.org/2000/svg">
<circle cx="2649.5" cy="1830.5" r="1518.5" fill="black"/>
<path fill-rule="evenodd" clip-rule="evenodd" d="M2653 637.3C1949.07 637.3 1378.41 1207.96 1378.41 1911.9C1378.41 2615.84 1949.06 3186.5 2653 3186.5C3356.93 3186.5 3927.59 2615.84 3927.59 1911.9C3927.59 1207.96 3356.93 637.3 2653 637.3ZM3813.19 3431.66C4270.13 3082.3 4564.88 2531.52 4564.88 1911.9C4564.88 855.987 3708.9 0 2653 0C1597.1 0 741.12 855.987 741.12 1911.9C741.12 2531.52 1035.87 3082.3 1492.81 3431.66C1172.42 3573.39 877.661 3773.96 625.145 4026.47C430.156 4221.46 266.128 4441.67 136.257 4679.41C-103.403 5118.13 -5.66599 5565.45 264.232 5881.76C524.058 6186.27 940.282 6373 1378.41 6373H3927.59C4365.72 6373 4781.94 6186.27 5041.77 5881.76C5311.67 5565.45 5409.4 5118.13 5169.74 4679.41C5039.87 4441.67 4875.84 4221.47 4680.85 4026.47C4428.34 3773.96 4133.58 3573.39 3813.19 3431.66Z" fill="black"/>
<path d="M1923.61 3772C2016.61 3772 2114.71 3803.36 2185.83 3874.46L2653 4341.56L3120.18 3874.46C3191.29 3803.36 3289.39 3772 3382.39 3772C3475.39 3772 3573.49 3803.36 3644.6 3874.46C3786.47 4016.67 3786.47 4256.6 3644.6 4398.81L3177.43 4865.9L3644.6 5333C3786.47 5475.21 3786.47 5715.14 3644.6 5857.34C3502.73 5999.55 3262.04 5999.55 3120.18 5857.34L2653 5390.24L2185.83 5857.34C2043.96 5999.55 1803.27 5999.55 1661.4 5857.34C1519.53 5715.14 1519.53 5475.21 1661.4 5333L2128.57 4865.9L1661.4 4398.81C1519.53 4256.6 1519.53 4016.67 1661.4 3874.46C1732.51 3803.36 1830.62 3772 1923.61 3772Z" fill="white"/>
</svg>
