<svg width="30" height="29" viewBox="0 0 30 29" fill="none" xmlns="http://www.w3.org/2000/svg">
<path d="M12.7901 28.8755C12.5431 28.7599 12.3167 28.6045 12.1201 28.4155C11.9964 28.211 11.9372 27.9741 11.9501 27.7355V8.50547C11.9564 8.27385 11.8742 8.04853 11.7201 7.87547C9.82676 5.66214 7.94342 3.44881 6.07009 1.23547C5.98448 1.15448 5.91976 1.05396 5.88145 0.942509C5.84313 0.831057 5.83238 0.711987 5.85009 0.595474C5.87317 0.461779 5.93461 0.337674 6.02693 0.238253C6.11925 0.138833 6.23847 0.0683839 6.37009 0.0354746C6.50739 -0.0103383 6.65562 -0.0118142 6.79381 0.0312565C6.93199 0.0743273 7.05313 0.159763 7.14009 0.275474L9.07009 2.54547L12.1301 6.15547C12.179 6.22248 12.2441 6.27598 12.3193 6.31096C12.3945 6.34594 12.4773 6.36126 12.5601 6.35547H16.8501C16.9405 6.36032 17.0307 6.34277 17.1127 6.30439C17.1947 6.26601 17.2659 6.20799 17.3201 6.13548C18.9601 4.19548 20.6101 2.26547 22.2501 0.335474C22.329 0.220407 22.4376 0.128927 22.5644 0.0708045C22.6912 0.0126818 22.8314 -0.00989949 22.9701 0.00547395C23.1039 0.0232067 23.2303 0.0777186 23.335 0.162948C23.4397 0.248176 23.5188 0.360783 23.5633 0.488246C23.6079 0.615709 23.6162 0.753033 23.5874 0.88495C23.5586 1.01687 23.4937 1.13821 23.4001 1.23547C22.7401 2.02547 22.0601 2.81547 21.4001 3.60547L17.7301 7.93547C17.5964 8.08697 17.5249 8.28346 17.5301 8.48547V27.6555C17.5301 28.4255 17.3601 28.6555 16.6501 28.9055H16.4401C15.7401 28.6255 15.6001 28.4255 15.6001 27.6555V17.9355C15.6051 17.8389 15.6051 17.7421 15.6001 17.6455C15.579 17.4631 15.4994 17.2924 15.3732 17.159C15.247 17.0256 15.081 16.9367 14.9001 16.9055C14.7134 16.8779 14.5229 16.9156 14.3608 17.0121C14.1987 17.1087 14.0748 17.2582 14.0101 17.4355C13.9854 17.5979 13.9854 17.7631 14.0101 17.9255V27.6255C14.0101 28.4055 13.8601 28.6255 13.1501 28.8855L12.7901 28.8755Z" fill="white"/>
<path d="M0.94 7.34571C0.749269 7.51076 0.548917 7.66437 0.34 7.80571C0.25 7.86571 0.12 7.80571 0 7.80571C0.0153485 7.68971 0.052682 7.57771 0.11 7.47571C0.214713 7.36255 0.33216 7.26188 0.46 7.1757C0.58 7.0657 0.71 6.99571 0.67 6.77571C0.666134 6.72013 0.676399 6.66448 0.699839 6.61395C0.723279 6.56341 0.759131 6.51963 0.804054 6.48669C0.848977 6.45375 0.901509 6.43271 0.956754 6.42554C1.012 6.41838 1.06816 6.42531 1.12 6.44571C1.18885 6.46486 1.26163 6.46473 1.33041 6.44533C1.39918 6.42593 1.46131 6.38801 1.51 6.3357L4.7 3.7957C4.76 3.7957 4.81 3.6857 4.87 3.6757C4.95728 3.64441 5.05272 3.64441 5.14 3.6757V3.9257C5.14 4.0057 5.04 4.0157 4.98 4.0657L1.92 6.51571L1.59 6.77571L2.02 7.27571L4.53 10.2857C4.57641 10.3466 4.63731 10.395 4.70716 10.4265C4.77702 10.4579 4.85361 10.4714 4.93 10.4657H7.83C8.00929 10.4489 8.19007 10.4717 8.35958 10.5325C8.52909 10.5933 8.68319 10.6905 8.811 10.8174C8.9388 10.9442 9.0372 11.0976 9.09923 11.2666C9.16126 11.4357 9.18542 11.6163 9.17 11.7957V16.4757C9.17 16.7057 9.12 16.8957 8.87 16.9657C8.82505 16.9874 8.77541 16.9974 8.72558 16.9951C8.67575 16.9927 8.62729 16.978 8.5846 16.9521C8.54191 16.9263 8.50632 16.8903 8.48108 16.8472C8.45583 16.8042 8.44171 16.7556 8.44 16.7057C8.38307 16.3246 8.34635 15.9407 8.33 15.5557V12.5557C8.34513 12.4764 8.34513 12.395 8.33 12.3157C8.33 12.2557 8.21 12.1757 8.14 12.1757C8.07 12.1757 8 12.2557 7.97 12.3257C7.95437 12.4016 7.95437 12.4798 7.97 12.5557V15.0657C7.97411 16.1455 8.09481 17.2218 8.33 18.2757C8.72 20.6057 9.12 22.9357 9.51 25.2757C9.52754 25.3474 9.5302 25.422 9.5178 25.4947C9.5054 25.5675 9.47822 25.637 9.43792 25.6988C9.39762 25.7607 9.34507 25.8136 9.28351 25.8543C9.22194 25.8951 9.15268 25.9228 9.08 25.9357C8.93081 25.9602 8.77789 25.9274 8.65181 25.844C8.52574 25.7605 8.4358 25.6326 8.4 25.4857V25.3657C7.99 23.5157 7.59 21.6757 7.18 19.8257C7.09 19.4257 7.01 19.0257 6.92 18.6257C6.89649 18.4746 6.82043 18.3365 6.7052 18.2359C6.58996 18.1353 6.44294 18.0786 6.29 18.0757C6.13624 18.0697 5.98587 18.1219 5.86904 18.2221C5.75221 18.3222 5.67754 18.4628 5.66 18.6157C5.16667 20.8357 4.68 23.0557 4.2 25.2757C4.2 25.3457 4.2 25.4157 4.15 25.4857C4.12087 25.6282 4.03838 25.7542 3.91939 25.8378C3.80041 25.9215 3.65395 25.9565 3.51 25.9357C3.43524 25.9289 3.36277 25.9063 3.2974 25.8694C3.23203 25.8325 3.17525 25.7821 3.13081 25.7216C3.08637 25.6611 3.0553 25.5918 3.03964 25.5184C3.02399 25.445 3.02411 25.3691 3.04 25.2957C3.04 24.9257 3.16 24.5557 3.22 24.1857C3.68 21.519 4.13667 18.8757 4.59 16.2557C4.60028 16.1693 4.60028 16.0821 4.59 15.9957V11.7557C4.59371 11.6207 4.55526 11.4879 4.48 11.3757L1.05 7.44571L0.94 7.34571ZM27.79 6.85571L25.79 5.26571L24.3 4.0657C24.19 3.9757 24.08 3.87571 24.21 3.72571C24.34 3.57571 24.44 3.72571 24.55 3.72571L27.83 6.35571C27.874 6.40209 27.9301 6.43514 27.9921 6.45106C28.054 6.46698 28.1191 6.46512 28.18 6.44571C28.44 6.36571 28.62 6.5457 28.65 6.8157C28.6671 6.92702 28.7157 7.03112 28.79 7.11571C28.94 7.25571 29.13 7.36571 29.27 7.51571C29.41 7.66571 29.27 7.70571 29.34 7.80571C29.41 7.90571 29.12 7.80571 29.05 7.80571C28.8206 7.65189 28.6002 7.48495 28.39 7.30571L26.94 9.0057L25.01 11.2757C24.9168 11.3963 24.8643 11.5434 24.86 11.6957V16.0157C24.9083 16.6621 25.0053 17.3039 25.15 17.9357C25.57 20.3957 26 22.8457 26.43 25.3057C26.4445 25.3786 26.4442 25.4537 26.4294 25.5266C26.4145 25.5994 26.3853 25.6686 26.3434 25.7301C26.3015 25.7915 26.2478 25.844 26.1854 25.8844C26.123 25.9249 26.0532 25.9525 25.98 25.9657C25.8277 25.9921 25.6711 25.9576 25.5439 25.8697C25.4168 25.7818 25.3292 25.6475 25.3 25.4957C25.18 24.9857 25.08 24.4957 24.97 23.9657C24.59 22.2157 24.2 20.4657 23.82 18.7057C23.8075 18.5438 23.7349 18.3925 23.6165 18.2815C23.498 18.1704 23.3423 18.1077 23.18 18.1057C22.85 18.1057 22.62 18.3057 22.53 18.7057L21.06 25.3857V25.4857C21.0331 25.6393 20.9465 25.7761 20.8191 25.8661C20.6916 25.956 20.5338 25.9918 20.38 25.9657C20.3023 25.952 20.2284 25.9221 20.1632 25.8779C20.0979 25.8337 20.0426 25.7762 20.0011 25.7092C19.9596 25.6422 19.9326 25.5671 19.9221 25.489C19.9116 25.4108 19.9177 25.3313 19.94 25.2557C20.02 24.7257 20.12 24.2057 20.21 23.6857C20.63 21.2257 21.06 18.7757 21.48 16.3257C21.4899 16.2293 21.4899 16.1321 21.48 16.0357V12.5457V12.3357C21.48 12.2857 21.36 12.1857 21.29 12.1857C21.22 12.1857 21.15 12.2657 21.12 12.3357C21.1052 12.4117 21.1052 12.4898 21.12 12.5657V15.6557C21.12 16.0057 21.05 16.3457 21.01 16.6557C21.0115 16.6951 21.0047 16.7343 20.99 16.7708C20.9753 16.8074 20.9531 16.8404 20.9248 16.8678C20.8965 16.8951 20.8627 16.9162 20.8257 16.9296C20.7887 16.9431 20.7493 16.9485 20.71 16.9457C20.6211 16.9545 20.5318 16.9325 20.4572 16.8833C20.3826 16.8342 20.3271 16.7609 20.3 16.6757C20.2839 16.573 20.2839 16.4684 20.3 16.3657V11.8557C20.2773 11.6717 20.2969 11.4849 20.3572 11.3096C20.4176 11.1343 20.5171 10.975 20.6482 10.8439C20.7793 10.7128 20.9386 10.6133 21.1139 10.5529C21.2892 10.4926 21.476 10.473 21.66 10.4957H24.51C24.651 10.4953 24.7867 10.4418 24.89 10.3457C25.89 9.22571 26.82 8.08571 27.78 6.95571L27.79 6.85571ZM16.77 3.4257C16.7701 3.69347 16.7165 3.95854 16.6122 4.20519C16.508 4.45184 16.3553 4.67504 16.1632 4.86156C15.971 5.04809 15.7434 5.19413 15.4938 5.29104C15.2442 5.38794 14.9776 5.43374 14.71 5.4257C14.1796 5.4257 13.6709 5.21499 13.2958 4.83992C12.9207 4.46485 12.71 3.95614 12.71 3.4257C12.71 2.89527 12.9207 2.38656 13.2958 2.01149C13.6709 1.63642 14.1796 1.4257 14.71 1.4257C14.9776 1.41767 15.2442 1.46347 15.4938 1.56037C15.7434 1.65728 15.971 1.80332 16.1632 1.98985C16.3553 2.17637 16.508 2.39957 16.6122 2.64622C16.7165 2.89287 16.7701 3.15794 16.77 3.4257Z" fill="white"/>
<path d="M6.21015 10.0956C5.9778 10.0877 5.75295 10.0114 5.56385 9.8761C5.37474 9.74085 5.22981 9.55275 5.14724 9.33541C5.06467 9.11807 5.04814 8.88119 5.09973 8.65449C5.15132 8.42779 5.26873 8.22138 5.43722 8.06118C5.60571 7.90098 5.81777 7.79412 6.04678 7.75401C6.27579 7.71391 6.51154 7.74236 6.72444 7.83577C6.93734 7.92919 7.1179 8.08342 7.24346 8.2791C7.36901 8.47477 7.43396 8.70318 7.43015 8.93565C7.4197 9.25041 7.28593 9.54845 7.05769 9.76547C6.82945 9.98248 6.52505 10.1011 6.21015 10.0956ZM23.1002 10.0956C22.8694 10.0819 22.6478 10.0007 22.4628 9.8621C22.2778 9.7235 22.1376 9.53362 22.0595 9.31603C21.9815 9.09844 21.9691 8.86272 22.0239 8.63815C22.0787 8.41357 22.1982 8.21003 22.3676 8.05279C22.5371 7.89555 22.749 7.79154 22.977 7.75367C23.205 7.71581 23.4392 7.74575 23.6503 7.83978C23.8615 7.93382 24.0404 8.08781 24.1648 8.28262C24.2892 8.47744 24.3537 8.70452 24.3502 8.93565C24.345 9.09413 24.3085 9.25003 24.2427 9.39433C24.177 9.53862 24.0833 9.66845 23.9671 9.77632C23.8508 9.88418 23.7144 9.96794 23.5656 10.0228C23.4168 10.0776 23.2586 10.1023 23.1002 10.0956Z" fill="white"/>
</svg>
