<svg width="26" height="22" viewBox="0 0 26 22" fill="none" xmlns="http://www.w3.org/2000/svg">
<path d="M0.0799999 5.61299C0.118544 5.47741 0.172214 5.34658 0.24 5.22299C0.326055 5.08185 0.44855 4.9665 0.594606 4.88907C0.740663 4.81164 0.904883 4.775 1.07 4.78299H5.07C4.74428 4.73692 4.4315 4.62438 4.1511 4.45235C3.8707 4.28032 3.62865 4.05249 3.44 3.78299C3.23668 3.52495 3.09127 3.22618 3.01362 2.90698C2.93598 2.58777 2.92792 2.25559 2.99 1.93299C3.07704 1.50219 3.2807 1.10357 3.57878 0.780587C3.87685 0.457609 4.25789 0.222682 4.68034 0.10143C5.10279 -0.0198225 5.55042 -0.0227447 5.97442 0.0929823C6.39841 0.208709 6.78249 0.438642 7.08475 0.757701C7.38702 1.07676 7.59587 1.47269 7.68853 1.90232C7.78118 2.33195 7.75408 2.77877 7.61019 3.19405C7.4663 3.60933 7.21113 3.97712 6.87253 4.25732C6.53392 4.53751 6.12487 4.71935 5.69 4.78299H19.43C19.0737 4.73361 18.7327 4.60574 18.4318 4.40859C18.1309 4.21145 17.8776 3.94996 17.69 3.64299C17.392 3.17005 17.2749 2.60544 17.36 2.05299C17.4247 1.60999 17.6121 1.19393 17.9009 0.851829C18.1897 0.509728 18.5684 0.255228 18.9943 0.117093C19.4201 -0.0210418 19.8762 -0.0373041 20.3108 0.0701437C20.7454 0.177592 21.1413 0.404466 21.4537 0.725125C21.7662 1.04578 21.9827 1.44744 22.0788 1.88471C22.1749 2.32197 22.1468 2.7774 21.9977 3.19953C21.8485 3.62166 21.5843 3.99366 21.2348 4.27348C20.8853 4.5533 20.4645 4.72979 20.02 4.78299H24.02C24.2852 4.78299 24.5396 4.88835 24.7271 5.07588C24.9146 5.26342 25.02 5.51778 25.02 5.78299V9.46299C25.0221 9.70715 24.9347 9.94363 24.7745 10.1278C24.6142 10.312 24.3921 10.4313 24.15 10.463H23.15V21.073H20.2V18.203H4.87V21.073H2V10.533H1C0.767453 10.5382 0.540376 10.4621 0.357856 10.3179C0.175335 10.1737 0.0487894 9.97042 0 9.74299L0.0799999 5.61299ZM4.87 16.283H20.19V10.543H4.87V16.283ZM6.3 5.74299H3.49C3.44 5.74299 3.42 5.74299 3.4 5.81299C2.78 7.04299 2.17 8.26299 1.56 9.49299C1.55461 9.51939 1.55461 9.5466 1.56 9.57299H4.36C4.42 9.57299 4.44 9.57299 4.47 9.50299C5.08 8.27299 5.69 7.05299 6.31 5.82299L6.3 5.74299ZM23.55 5.74299H20.77C20.7 5.74299 20.67 5.74299 20.64 5.81299L18.81 9.49299C18.8046 9.51939 18.8046 9.5466 18.81 9.57299H21.61C21.6324 9.57602 21.6551 9.57051 21.6737 9.55754C21.6922 9.54456 21.7052 9.52509 21.71 9.50299C22.33 8.27299 22.94 7.05299 23.55 5.82299C23.5536 5.79644 23.5536 5.76954 23.55 5.74299ZM7.27 9.57299H10.08C10.0995 9.5741 10.1188 9.56884 10.135 9.55802C10.1513 9.5472 10.1635 9.5314 10.17 9.51299C10.79 8.28299 11.4 7.04299 12.02 5.81299V5.74299H9.27C9.24379 5.7401 9.21732 5.74524 9.1941 5.75774C9.17088 5.77025 9.15201 5.78951 9.14 5.81299L7.62 8.87299C7.5 9.10299 7.39 9.33299 7.27 9.57299ZM13.02 9.57299H15.79C15.8189 9.57736 15.8485 9.57184 15.8739 9.55732C15.8993 9.5428 15.9191 9.52014 15.93 9.49299L17.76 5.82299C17.7654 5.7966 17.7654 5.76939 17.76 5.74299H14.99C14.9679 5.74198 14.9462 5.7483 14.9281 5.76096C14.91 5.77363 14.8966 5.79192 14.89 5.81299L13.06 9.49299C13.0388 9.51497 13.0249 9.54288 13.02 9.57299ZM6.21 2.39299C6.21132 2.28005 6.19038 2.16796 6.14838 2.06312C6.10638 1.95827 6.04413 1.86272 5.9652 1.78193C5.88627 1.70115 5.7922 1.6367 5.68836 1.59227C5.58451 1.54784 5.47294 1.5243 5.36 1.52299C5.18713 1.51902 5.017 1.56664 4.87133 1.65979C4.72565 1.75294 4.61103 1.88739 4.54211 2.04597C4.47318 2.20455 4.45307 2.38007 4.48435 2.55013C4.51563 2.72019 4.59687 2.87707 4.71771 3.00075C4.83854 3.12443 4.99349 3.2093 5.16278 3.24452C5.33207 3.27974 5.50801 3.26372 5.66815 3.1985C5.82829 3.13328 5.96536 3.02182 6.06187 2.87835C6.15838 2.73488 6.20995 2.5659 6.21 2.39299ZM18.85 2.39299C18.8551 2.62213 18.9484 2.84047 19.1105 3.00254C19.2725 3.1646 19.4909 3.2579 19.72 3.26299C19.8921 3.26299 20.0603 3.21197 20.2033 3.11637C20.3464 3.02077 20.4579 2.8849 20.5238 2.72593C20.5896 2.56695 20.6069 2.39203 20.5733 2.22326C20.5397 2.0545 20.4569 1.89948 20.3352 1.77781C20.2135 1.65614 20.0585 1.57328 19.8897 1.53971C19.721 1.50614 19.546 1.52337 19.3871 1.58922C19.2281 1.65507 19.0922 1.76658 18.9966 1.90965C18.901 2.05272 18.85 2.22092 18.85 2.39299Z" fill="white"/>
</svg>
