<svg width="20" height="23" viewBox="0 0 20 23" fill="none" xmlns="http://www.w3.org/2000/svg">
<path d="M0.0299997 7.76011C0.227519 7.03377 0.567438 6.35393 1.03 5.76011C1.15065 6.03815 1.34469 6.27811 1.59132 6.45427C1.83794 6.63043 2.12786 6.73616 2.43 6.76011L1.95 7.51011L2.16 7.45011C3.07353 7.14322 3.94655 6.72686 4.76 6.21011L7.34 4.50011C8.7132 3.61501 10.1743 2.8744 11.7 2.29011C12.87 1.83011 14.06 1.42011 15.25 1.00011C15.3604 0.952293 15.4796 0.927902 15.5999 0.928477C15.7202 0.929051 15.8391 0.954581 15.9491 1.00345C16.059 1.05232 16.1577 1.12347 16.2387 1.2124C16.3198 1.30133 16.3815 1.40611 16.42 1.52011C16.4647 1.63726 16.4838 1.7626 16.4761 1.88774C16.4684 2.01288 16.434 2.13493 16.3753 2.24571C16.3166 2.3565 16.2349 2.45346 16.1357 2.5301C16.0365 2.60674 15.922 2.6613 15.8 2.69011C13.8506 3.29922 11.9488 4.05126 10.11 4.94011C9.81 5.08011 9.51 5.24011 9.2 5.40011C9.32 5.61011 9.42 5.80011 9.53 5.98011C10.4916 7.63328 11.1836 9.42913 11.58 11.3001C11.63 11.5501 11.58 11.8601 11.75 12.0201C11.92 12.1801 12.21 12.1601 12.45 12.2301C14.3499 12.8175 16.0158 13.9899 17.21 15.5801C17.9864 16.5823 18.6223 17.6858 19.1 18.8601C19.1456 18.9669 19.1824 19.0773 19.21 19.1901V19.6001C19.1545 19.8888 19.0063 20.1514 18.7879 20.3481C18.5695 20.5448 18.2929 20.6649 18 20.6901C17.7013 20.7166 17.4021 20.645 17.1477 20.4862C16.8933 20.3274 16.6975 20.0901 16.59 19.8101C16.2938 19.1255 15.96 18.4578 15.59 17.8101C14.8885 16.6804 13.8883 15.7668 12.7 15.1701C11.7808 14.6789 10.7381 14.4669 9.7 14.5601C9.61 14.5601 9.54 14.5601 9.51 14.6901C9.17663 15.8452 8.62315 16.925 7.88 17.8701C6.74542 19.3553 5.43598 20.6983 3.98 21.8701C3.71129 22.1208 3.39022 22.3087 3.04 22.4201H2.5C2.2112 22.3444 1.95596 22.1743 1.7748 21.937C1.59363 21.6997 1.49692 21.4087 1.5 21.1101C1.50615 20.8833 1.56546 20.6611 1.67314 20.4613C1.78082 20.2616 1.93388 20.0899 2.12 19.9601C3.20962 19.0907 4.21413 18.1196 5.12 17.0601C5.81852 16.2953 6.37401 15.4113 6.76 14.4501C6.88465 14.1306 6.95561 13.7927 6.97 13.4501C6.94922 12.7481 6.82107 12.0534 6.59 11.3901C6.17293 10.2646 5.48621 9.25856 4.59 8.46011H4.39C3.89 8.67011 3.39 8.90011 2.89 9.09011C2.39002 9.30132 1.85276 9.41013 1.31 9.41011C1.06598 9.41089 0.826522 9.34402 0.618217 9.21692C0.409913 9.08982 0.240917 8.90747 0.13 8.69011C0.0762905 8.57412 0.0327925 8.45366 0 8.33011L0.0299997 7.76011Z" fill="white"/>
<path d="M5.2893 0L5.6793 0.0999994C6.24566 0.273938 6.72854 0.649597 7.03642 1.15579C7.3443 1.66197 7.45579 2.26352 7.34977 2.84642C7.24374 3.42932 6.92757 3.95308 6.46117 4.31844C5.99476 4.68379 5.41054 4.86536 4.81921 4.82873C4.22787 4.7921 3.67052 4.53981 3.25278 4.11969C2.83503 3.69956 2.58592 3.14079 2.55265 2.54925C2.51938 1.95772 2.70426 1.37454 3.07226 0.910218C3.44026 0.445899 3.96581 0.132709 4.5493 0.0299997H4.6893L5.2893 0Z" fill="white"/>
<path d="M2.56002 6.48997C2.22748 6.4427 1.92246 6.27909 1.69915 6.02819C1.47583 5.7773 1.34868 5.45537 1.34029 5.11959C1.33189 4.78381 1.4428 4.45592 1.65329 4.19418C1.86379 3.93244 2.16026 3.75379 2.49002 3.68997C2.53371 3.68118 2.57908 3.68722 2.61893 3.70715C2.65879 3.72708 2.69085 3.75975 2.71002 3.79997C2.97767 4.23926 3.37144 4.58774 3.84002 4.79997C3.88555 4.81836 3.92434 4.85027 3.95117 4.8914C3.97799 4.93253 3.99155 4.98089 3.99003 5.02997C3.9954 5.22063 3.96231 5.41042 3.89274 5.58801C3.82316 5.7656 3.71851 5.92736 3.58505 6.06362C3.45159 6.19989 3.29204 6.30787 3.11593 6.38112C2.93982 6.45437 2.75075 6.49139 2.56002 6.48997Z" fill="white"/>
</svg>
