<svg width="24" height="23" viewBox="0 0 24 23" fill="none" xmlns="http://www.w3.org/2000/svg">
<path d="M6.57524 6.69L2.33524 8.11L0.715242 3.35L10.5252 0L12.1352 4.76L8.08524 6.14C8.47524 7.2 8.84524 8.23 9.25524 9.25C9.30524 9.4 9.54524 9.49 9.71524 9.57C9.9445 9.65855 10.1781 9.73531 10.4152 9.8C10.0052 11.33 9.61524 12.8 9.18524 14.31C9.08471 14.5317 8.92569 14.7219 8.72524 14.86C7.87524 15.6 6.98524 16.31 6.16524 17.07C5.93009 17.2984 5.78462 17.6035 5.75524 17.93V23H0.00524162V21.48V17.48C-0.016517 17.1618 0.0296302 16.8426 0.140623 16.5435C0.251616 16.2445 0.424919 15.9725 0.649036 15.7456C0.873152 15.5186 1.14296 15.3419 1.44057 15.2271C1.73817 15.1124 2.05678 15.0622 2.37524 15.08C2.70779 15.0476 3.0427 15.0476 3.37524 15.08C5.07524 15.47 5.99524 14.24 7.01524 13.29C7.28524 13.04 7.27524 12.5 7.43524 12.1C7.66671 11.5562 7.77253 10.9671 7.74483 10.3767C7.71713 9.78632 7.55662 9.20978 7.27524 8.69C7.00138 8.03822 6.76761 7.37031 6.57524 6.69Z" fill="white"/>
<path d="M12.5847 12.04C13.8447 12.13 13.9247 11.18 14.2147 10.42C14.5047 9.65998 14.6847 9.15998 14.9347 8.48998L10.9847 7.15998C10.9847 6.49998 11.3247 6.26998 11.8547 6.15998C12.3847 6.04998 12.9747 5.78998 13.5947 5.58998L12.5947 2.47998L22.3447 5.58998L20.7347 10.4L16.4447 9.00998C16.0147 10.2 15.5547 11.36 15.1747 12.53C15.0947 12.79 15.2747 13.12 15.3047 13.43C15.3802 14.1718 15.6296 14.8853 16.0328 15.5126C16.4359 16.1398 16.9813 16.6631 17.6247 17.04C17.8695 17.2037 18.1514 17.3034 18.4447 17.33C19.1947 17.38 19.9547 17.33 20.7147 17.33C21.0229 17.3215 21.3296 17.3765 21.6156 17.4915C21.9017 17.6065 22.1611 17.779 22.3777 17.9984C22.5943 18.2179 22.7636 18.4795 22.8748 18.767C22.9861 19.0546 23.0371 19.3619 23.0247 19.67V23.01H17.2847V20.29C17.3004 20.0957 17.2643 19.9008 17.18 19.725C17.0956 19.5493 16.9661 19.3992 16.8047 19.29C15.9147 18.57 15.0547 17.81 14.1947 17.06C14.0032 16.9056 13.8579 16.7015 13.7747 16.47C13.3847 15.07 13.0047 13.63 12.5847 12.04ZM3.46468 9.25998C4.04458 9.29836 4.58819 9.55579 4.98533 9.98009C5.38247 10.4044 5.60344 10.9638 5.60344 11.545C5.60344 12.1261 5.38247 12.6856 4.98533 13.1099C4.58819 13.5342 4.04458 13.7916 3.46468 13.83C3.1519 13.8507 2.8382 13.807 2.543 13.7015C2.24781 13.596 1.97741 13.4311 1.74855 13.2169C1.51969 13.0027 1.33725 12.7437 1.21252 12.4562C1.08779 12.1686 1.02344 11.8584 1.02344 11.545C1.02344 11.2315 1.08779 10.9214 1.21252 10.6338C1.33725 10.3462 1.51969 10.0873 1.74855 9.87309C1.97741 9.65888 2.24781 9.49393 2.543 9.38847C2.8382 9.28301 3.1519 9.23928 3.46468 9.25998Z" fill="white"/>
<path d="M19.5744 11.5799C19.8763 11.5773 20.1758 11.6346 20.4554 11.7487C20.735 11.8627 20.9891 12.0311 21.2031 12.2441C21.4171 12.4572 21.5866 12.7106 21.7018 12.9897C21.8171 13.2688 21.8757 13.568 21.8744 13.8699C21.8639 14.48 21.6134 15.0614 21.1773 15.4882C20.7412 15.9149 20.1545 16.1527 19.5444 16.1499C19.2416 16.1488 18.9421 16.0868 18.6637 15.9677C18.3854 15.8485 18.1338 15.6747 17.9239 15.4564C17.714 15.2381 17.5501 14.9799 17.442 14.6971C17.3339 14.4142 17.2837 14.1126 17.2944 13.8099C17.2957 13.5132 17.3559 13.2197 17.4715 12.9465C17.5872 12.6732 17.756 12.4257 17.9681 12.2182C18.1802 12.0107 18.4315 11.8475 18.7072 11.7379C18.9829 11.6283 19.2777 11.5746 19.5744 11.5799Z" fill="white"/>
</svg>
